# File created by Blade
# Date/Time:  Thu Jan 22 19:24:27 2015
#---------------------------------------------------------
:version 1.10
:name HOM
:units
  mass 1.0
  length 1.000000
  angle deg
:documentation
     Acclaim Skeleton File
:root
   axis xyz
   order TX TY TZ RX RY RZ
   position 0.000000 0.000000 0.000000
   orientation 0 0 0
:bonedata
   begin
      id 1
      name RightUpLeg_dum
      direction -1.000000 0.000000 0.000000
      length 4.478084
      axis 0.0 0.0 0.0 xyz
   end
   begin
      id 2
      name LeftUpLeg_dum
      direction 1.000000 0.000000 0.000000
      length 4.478084
      axis 0.0 0.0 0.0 xyz
   end
   begin
      id 3
      name Spine_dum
      direction 0.000000 1.000000 0.000000
      length 6.068208
      axis 0.0 0.0 0.0 xyz
   end
   begin
      id 4
      name RightUpLeg
      direction 0.000000 -1.000000 0.000000
      length 16.405774
      axis 0.0 0.0 0.0 xyz
      dof rx ry rz
   end
   begin
      id 5
      name RightLeg
      direction 0.000000 -1.000000 0.000000
      length 14.644143
      axis 0.0 0.0 0.0 xyz
      dof rx ry rz
   end
   begin
      id 6
      name RightFoot
      direction 0.000000 -0.258819 0.965926
      length 5.806150
      axis 15.0 0.0 0.0 xyz
      dof rx ry rz
   end
   begin
      id 7
      name RightToeBase
      direction 0.000000 0.000000 1.000000
      length 2.952750
      axis 0.0 0.0 0.0 xyz
      dof rx ry rz
   end
   begin
      id 8
      name LeftUpLeg
      direction 0.000000 -1.000000 0.000000
      length 16.405774
      axis 0.0 0.0 0.0 xyz
      dof rx ry rz
   end
   begin
      id 9
      name LeftLeg
      direction 0.000000 -1.000000 0.000000
      length 14.644143
      axis 0.0 0.0 0.0 xyz
      dof rx ry rz
   end
   begin
      id 10
      name LeftFoot
      direction 0.000000 -0.258819 0.965926
      length 5.806150
      axis 15.0 0.0 0.0 xyz
      dof rx ry rz
   end
   begin
      id 11
      name LeftToeBase
      direction 0.000000 0.000000 1.000000
      length 2.952750
      axis 0.0 0.0 0.0 xyz
      dof rx ry rz
   end
   begin
      id 12
      name Spine
      direction 0.000000 1.000000 0.000000
      length 0.000000
      axis 0.0 0.0 0.0 xyz
      dof rx ry rz
   end
   begin
      id 13
      name Spine_dum1
      direction 0.000000 1.000000 0.000000
      length 10.013923
      axis 0.0 0.0 0.0 xyz
   end
   begin
      id 14
      name Spine_dum2
      direction 0.000000 1.000000 0.000000
      length 10.013923
      axis 0.0 0.0 0.0 xyz
   end
   begin
      id 15
      name Spine_dum3
      direction 0.000000 1.000000 0.000000
      length 15.777476
      axis 0.0 0.0 0.0 xyz
   end
   begin
      id 16
      name RightShoulder
      direction -1.000000 0.000000 0.000000
      length 7.190220
      axis 0.0 0.0 90.0 xyz
      dof rx ry rz
   end
   begin
      id 17
      name RightArm
      direction -1.000000 0.000000 0.000000
      length 10.177469
      axis 0.0 0.0 90.0 xyz
      dof rx ry rz
   end
   begin
      id 18
      name RightForeArm
      direction -1.000000 0.000000 0.000000
      length 8.392114
      axis 0.0 0.0 90.0 xyz
      dof ry rz rx
   end
   begin
      id 19
      name RightHand
      direction -1.000000 0.000000 0.000000
      length 0.000000
      axis 0.0 0.0 90.0 xyz
      dof rx ry rz
   end
   begin
      id 20
      name RightHand_dum1
      direction -1.000000 0.000000 0.000000
      length 3.937000
      axis 0.0 0.0 90.0 xyz
   end
   begin
      id 21
      name RightHand_dum2
      direction 0.000000 0.000000 0.000000
      length 0.000000
      axis 0.0 0.0 90.0 xyz
   end
   begin
      id 22
      name RightHandThumb1
      direction 0.000000 0.000000 1.000000
      length 3.937000
      axis 0.0 0.0 90.0 xyz
      dof rx rz ry
   end
   begin
      id 23
      name LeftShoulder
      direction 1.000000 0.000000 0.000000
      length 7.190220
      axis 0.0 0.0 -90.0 xyz
      dof rx ry rz
   end
   begin
      id 24
      name LeftArm
      direction 1.000000 0.000000 0.000000
      length 10.177469
      axis 0.0 0.0 -90.0 xyz
      dof rx ry rz
   end
   begin
      id 25
      name LeftForeArm
      direction 1.000000 0.000000 0.000000
      length 8.392114
      axis 0.0 0.0 -90.0 xyz
      dof ry rz rx
   end
   begin
      id 26
      name LeftHand
      direction 1.000000 0.000000 0.000000
      length 0.000000
      axis 0.0 0.0 -90.0 xyz
      dof rx ry rz
   end
   begin
      id 27
      name LeftHand_dum1
      direction 1.000000 0.000000 0.000000
      length 3.937000
      axis 0.0 0.0 -90.0 xyz
   end
   begin
      id 28
      name LeftHand_dum2
      direction 0.000000 0.000000 0.000000
      length 0.000000
      axis 0.0 0.0 -90.0 xyz
   end
   begin
      id 29
      name LeftHandThumb1
      direction 0.000000 0.000000 1.000000
      length 3.937000
      axis 0.0 0.0 -90.0 xyz
      dof rx rz ry
   end
   begin
      id 30
      name Head
      direction 0.000000 1.000000 0.000000
      length 4.527550
      axis 0.0 0.0 0.0 xyz
      dof rx ry rz
   end
:hierarchy
   begin
      root RightUpLeg_dum LeftUpLeg_dum Spine_dum
      RightUpLeg_dum RightUpLeg
      LeftUpLeg_dum LeftUpLeg
      Spine_dum Spine
      RightUpLeg RightLeg
      RightLeg RightFoot
      RightFoot RightToeBase
      LeftUpLeg LeftLeg
      LeftLeg LeftFoot
      LeftFoot LeftToeBase
      Spine Spine_dum1 Spine_dum2 Spine_dum3
      Spine_dum1 RightShoulder
      Spine_dum2 LeftShoulder
      Spine_dum3 Head
      RightShoulder RightArm
      RightArm RightForeArm
      RightForeArm RightHand
      RightHand RightHand_dum1 RightHand_dum2
      RightHand_dum2 RightHandThumb1
      LeftShoulder LeftArm
      LeftArm LeftForeArm
      LeftForeArm LeftHand
      LeftHand LeftHand_dum1 LeftHand_dum2
      LeftHand_dum2 LeftHandThumb1
   end

# File created by Blade
# Date/Time:  Thu Jan 22 19:24:19 2015
# Frame Rate: 120.000 fps
#------------------------------------------------------
:FULLY-SPECIFIED
:DEGREES
837
root -9.947501 31.814478 -3.019579 9.268347 -12.791799 -0.232883
RightUpLeg 1.467301 14.454406 17.449569
RightLeg -3.415751 -0.000000 0.000000
RightFoot -3.887489 -4.961356 -12.508447
RightToeBase 2.402491 -0.000000 -0.000000
LeftUpLeg -19.591600 0.869189 -7.750866
LeftLeg 35.145758 -0.000000 -0.000000
LeftFoot -28.532627 9.923761 -12.047549
LeftToeBase 6.482510 -0.000000 -0.000000
Spine -7.877187 -4.069316 -36.326143
RightShoulder -20.955163 19.657888 -65.396338
RightArm 58.135306 52.489354 32.918286
RightForeArm 4.223615 -0.000000 27.252828
RightHand 16.297393 -0.000000 -4.302999
RightHandThumb1 -24.326973 -0.000000 -32.862282
LeftShoulder -17.989777 5.155792 6.182954
LeftArm 11.298793 19.977608 -66.396463
LeftForeArm 20.117499 -0.000000 15.796554
LeftHand -0.070749 0.000000 -10.360534
LeftHandThumb1 -26.253704 0.000000 33.147579
Head -12.457457 1.840529 -36.124881
838
root -9.947823 31.814771 -3.018815 9.236818 -12.783355 -0.254516
RightUpLeg 1.493777 14.424834 17.477068
RightLeg -3.397753 -0.000000 0.000000
RightFoot -3.890502 -4.938708 -12.521960
RightToeBase 2.396867 -0.000000 -0.000000
LeftUpLeg -19.570403 0.825996 -7.728836
LeftLeg 35.174802 -0.000000 -0.000000
LeftFoot -28.524047 9.963444 -12.049526
LeftToeBase 6.565174 -0.000000 -0.000000
Spine -7.861643 -4.094333 -36.376959
RightShoulder -20.939129 19.655858 -65.358773
RightArm 58.048530 52.507151 32.848476
RightForeArm 4.291351 -0.000000 27.134930
RightHand 16.271614 -0.000000 -4.299063
RightHandThumb1 -24.326973 -0.000000 -32.862282
LeftShoulder -18.003085 5.212020 6.194996
LeftArm 11.331385 20.066882 -66.272218
LeftForeArm 19.934589 -0.000000 15.808983
LeftHand -0.063232 -0.000000 -10.379326
LeftHandThumb1 -26.253704 0.000000 33.147579
Head -12.544207 1.805429 -36.174822
839
root -9.948691 31.813789 -3.018920 9.204070 -12.781469 -0.282860
RightUpLeg 1.524357 14.431581 17.514953
RightLeg -3.383673 -0.000000 0.000000
RightFoot -3.880331 -4.944931 -12.521472
RightToeBase 2.376971 -0.000000 -0.000000
LeftUpLeg -19.554576 0.789147 -7.695314
LeftLeg 35.220423 -0.000000 -0.000000
LeftFoot -28.531561 9.983405 -12.081698
LeftToeBase 6.619596 -0.000000 -0.000000
Spine -7.851872 -4.136324 -36.398843
RightShoulder -20.923120 19.700272 -65.380276
RightArm 57.960072 52.497023 32.826993
RightForeArm 4.368812 -0.000000 27.044253
RightHand 16.265284 -0.000000 -4.334984
RightHandThumb1 -24.326973 -0.000000 -32.862282
LeftShoulder -18.026902 5.257144 6.174831
LeftArm 11.344415 20.110399 -66.149354
LeftForeArm 19.812119 -0.000000 15.820161
LeftHand -0.137778 0.000000 -10.349333
LeftHandThumb1 -26.253704 0.000000 33.147579
Head -12.581340 1.874266 -36.326394
840
root -9.947711 31.812712 -3.018230 9.191820 -12.778552 -0.309244
RightUpLeg 1.542166 14.444776 17.543333
RightLeg -3.380951 -0.000000 0.000000
RightFoot -3.856871 -4.961751 -12.564456
RightToeBase 2.328604 -0.000000 -0.000000
LeftUpLeg -19.558031 0.748651 -7.668129
LeftLeg 35.266567 -0.000000 -0.000000
LeftFoot -28.553111 9.996724 -12.134585
LeftToeBase 6.639530 -0.000000 -0.000000
Spine -7.861420 -4.132630 -36.431991
RightShoulder -20.945574 19.730707 -65.413327
RightArm 57.835350 52.449858 32.753147
RightForeArm 4.437118 -0.000000 26.970982
RightHand 16.220150 -0.000000 -4.433997
RightHandThumb1 -24.326973 -0.000000 -32.862282
LeftShoulder -18.013750 5.264616 6.165738
LeftArm 11.353313 20.172565 -66.035718
LeftForeArm 19.748520 -0.000000 15.798241
LeftHand -0.156222 0.000000 -10.378882
LeftHandThumb1 -26.253704 0.000000 33.147579
Head -12.622138 1.872690 -36.430956
841
root -9.946440 31.810652 -3.017471 9.164994 -12.777830 -0.330061
RightUpLeg 1.572153 14.462606 17.576089
RightLeg -3.378359 -0.000000 0.000000
RightFoot -3.837557 -4.999025 -12.586128
RightToeBase 2.248294 -0.000000 -0.000000
LeftUpLeg -19.551851 0.732978 -7.647462
LeftLeg 35.323677 -0.000000 -0.000000
LeftFoot -28.570666 10.018669 -12.142619
LeftToeBase 6.656951 -0.000000 -0.000000
Spine -7.839654 -4.124097 -36.469234
RightShoulder -20.982596 19.607136 -65.395688
RightArm 57.901418 52.550747 32.842774
RightForeArm 4.483111 0.000000 26.907206
RightHand 16.181679 0.000000 -4.397416
RightHandThumb1 -24.326973 -0.000000 -32.862282
LeftShoulder -18.020421 5.238866 6.165467
LeftArm 11.359892 20.236830 -65.940582
LeftForeArm 19.710034 0.000000 15.747637
LeftHand -0.146288 0.000000 -10.360636
LeftHandThumb1 -26.253704 0.000000 33.147579
Head -12.680374 1.782401 -36.569305
842
root -9.945847 31.807733 -3.017901 9.146626 -12.775299 -0.360017
RightUpLeg 1.602721 14.436750 17.614611
RightLeg -3.397263 -0.000000 0.000000
RightFoot -3.829795 -4.967930 -12.600446
RightToeBase 2.261592 -0.000000 -0.000000
LeftUpLeg -19.563130 0.726790 -7.616590
LeftLeg 35.402059 -0.000000 -0.000000
LeftFoot -28.593653 9.974371 -12.225466
LeftToeBase 6.550933 -0.000000 -0.000000
Spine -7.842259 -4.117703 -36.490096
RightShoulder -20.979813 19.529589 -65.342685
RightArm 57.955705 52.629451 32.859499
RightForeArm 4.509383 -0.000000 26.847543
RightHand 16.158351 -0.000000 -4.376298
RightHandThumb1 -24.326973 -0.000000 -32.862282
LeftShoulder -18.004376 5.261208 6.160147
LeftArm 11.388856 20.243052 -65.868233
LeftForeArm 19.703195 -0.000000 15.683994
LeftHand -0.103701 0.000000 -10.309533
LeftHandThumb1 -26.253704 0.000000 33.147579
Head -12.710449 1.766127 -36.680986
843
root -9.944367 31.803619 -3.018045 9.132104 -12.782963 -0.390920
RightUpLeg 1.634042 14.441980 17.653521
RightLeg -3.415305 -0.000000 0.000000
RightFoot -3.824989 -4.981596 -12.630256
RightToeBase 2.265229 -0.000000 -0.000000
LeftUpLeg -19.582190 0.752864 -7.588082
LeftLeg 35.488480 -0.000000 -0.000000
LeftFoot -28.656365 9.969149 -12.217310
LeftToeBase 6.637760 -0.000000 -0.000000
Spine -7.859130 -4.142391 -36.469564
RightShoulder -20.958636 19.584716 -65.408896
RightArm 57.839773 52.624242 32.781251
RightForeArm 4.493945 -0.000000 26.829404
RightHand 16.135471 0.000000 -4.417373
RightHandThumb1 -24.326973 -0.000000 -32.862282
LeftShoulder -18.011978 5.269998 6.121458
LeftArm 11.381616 20.287804 -65.782569
LeftForeArm 19.626018 0.000000 15.648828
LeftHand -0.158676 -0.000000 -10.260152
LeftHandThumb1 -26.253704 0.000000 33.147579
Head -12.745808 1.771447 -36.911206
844
root -9.942717 31.799936 -3.018779 9.124619 -12.786246 -0.425217
RightUpLeg 1.654316 14.436060 17.693181
RightLeg -3.425250 -0.000000 0.000000
RightFoot -3.816305 -4.988011 -12.692603
RightToeBase 2.246776 -0.000000 -0.000000
LeftUpLeg -19.606324 0.770806 -7.556609
LeftLeg 35.575591 -0.000000 -0.000000
LeftFoot -28.692506 9.932514 -12.243808
LeftToeBase 6.558355 -0.000000 -0.000000
Spine -7.869292 -4.128536 -36.489827
RightShoulder -20.975179 19.646227 -65.400501
RightArm 57.728065 52.590647 32.645622
RightForeArm 4.476193 -0.000000 26.819208
RightHand 16.140670 0.000000 -4.332812
RightHandThumb1 -24.326973 -0.000000 -32.862282
LeftShoulder -18.025156 5.307115 6.119518
LeftArm 11.435183 20.216526 -65.758104
LeftForeArm 19.675783 -0.000000 15.600506
LeftHand -0.252518 -0.000000 -10.150227
LeftHandThumb1 -26.253704 0.000000 33.147579
Head -12.762728 1.741030 -37.024698
845
root -9.940820 31.795100 -3.019677 9.125568 -12.778183 -0.471893
RightUpLeg 1.674803 14.426607 17.743282
RightLeg -3.452745 -0.000000 0.000000
RightFoot -3.792149 -4.986995 -12.765238
RightToeBase 2.175719 -0.000000 -0.000000
LeftUpLeg -19.654830 0.790377 -7.511086
LeftLeg 35.700678 -0.000000 -0.000000
LeftFoot -28.772257 9.866800 -12.285517
LeftToeBase 6.639606 -0.000000 -0.000000
Spine -7.888622 -4.121157 -36.466619
RightShoulder -20.987686 19.659442 -65.435310
RightArm 57.676007 52.584989 32.615635
RightForeArm 4.372703 -0.000000 26.872661
RightHand 16.130945 -0.000000 -4.296446
RightHandThumb1 -24.326973 -0.000000 -32.862282
LeftShoulder -18.019917 5.321601 6.078414
LeftArm 11.499629 19.916092 -65.767321
LeftForeArm 19.881607 -0.000000 15.421146
LeftHand -0.201943 -0.000000 -10.299762
LeftHandThumb1 -26.253704 0.000000 33.147579
Head -12.750780 1.745230 -37.185168
